<svg xmlns="http://www.w3.org/2000/svg" width="18" height="14" viewBox="0 0 18 14" fill="none">
  <path d="M17.4808 6.894L17.481 6.89455C17.493 6.92592 17.5 6.96235 17.5 7.00087C17.5 7.03939 17.493 7.07583 17.481 7.1072L17.4808 7.10775C17.4645 7.1507 16.8541 8.73404 15.4949 10.3198C13.6969 12.4167 11.4536 13.5 9 13.5C6.54641 13.5 4.3031 12.4167 2.50506 10.3198C1.14587 8.73404 0.535486 7.1507 0.519174 7.10774L0.518967 7.1072C0.507015 7.07584 0.5 7.0394 0.5 7.00087C0.5 6.96235 0.507015 6.92591 0.518967 6.89455L0.519147 6.89462L0.523727 6.88152C0.523649 6.88174 0.523838 6.88125 0.524297 6.88006C0.529367 6.86691 0.567392 6.76825 0.643022 6.6C0.723686 6.42055 0.844371 6.16813 1.00741 5.86709C1.33402 5.26401 1.82745 4.47164 2.50512 3.68102C4.30315 1.58332 6.54643 0.5 9 0.5C11.4536 0.5 13.6968 1.58332 15.4949 3.68102C16.8541 5.26673 17.4645 6.85094 17.4808 6.894ZM2.62651 10.0171L2.62707 10.0177C4.38023 12.0447 6.52987 13.1 9 13.1C11.5842 13.1 13.501 11.9133 14.8261 10.5963C16.1458 9.28478 16.9 7.82541 17.1831 7.20863L17.2799 6.99792L17.1816 6.78794C16.6993 5.75828 16.0906 4.81305 15.3731 3.9825L15.3729 3.98229C13.6198 1.95531 11.4701 0.9 9 0.9C6.52987 0.9 4.38023 1.95531 2.62707 3.98229L2.62656 3.98288C1.9103 4.81364 1.30289 5.7589 0.821984 6.78838L0.723111 7.00004L0.822014 7.21168C1.30304 8.24103 1.9104 9.18622 2.62651 10.0171ZM7.30735 3.90217C7.81658 3.5052 8.40553 3.30005 8.99977 3.3C9.79469 3.30108 10.5756 3.66937 11.1649 4.35683C11.7562 5.04676 12.0991 5.99659 12.1 7.00045C12.0999 7.74775 11.9097 8.47335 11.5594 9.0849C11.2093 9.69628 10.719 10.16 10.1601 10.4301C9.60291 10.6994 8.99557 10.768 8.4107 10.6322C7.82457 10.4962 7.27396 10.1577 6.83404 9.64445C6.39352 9.13051 6.08683 8.46717 5.96206 7.73534C5.83729 7.00357 5.90178 6.24568 6.14521 5.56002C6.38865 4.87437 6.7968 4.30016 7.30735 3.90217ZM7.35923 9.72245C7.83663 10.0946 8.40763 10.3 9 10.3C9.79619 10.3 10.5409 9.93037 11.0767 9.30529C11.6104 8.6826 11.9 7.85245 11.9 7C11.9 6.363 11.7384 5.73538 11.4294 5.19591C11.1203 4.65614 10.6735 4.22269 10.136 3.96295C9.59683 3.7024 8.99777 3.63238 8.41875 3.76674C7.841 3.90082 7.32251 4.22897 6.92331 4.6947C6.52472 5.15973 6.25996 5.74368 6.15323 6.36971C6.04648 6.9958 6.10082 7.64538 6.3115 8.2388C6.5222 8.83224 6.88308 9.35128 7.35923 9.72245ZM18 7.00087C18 6.9029 17.9824 6.80602 17.9483 6.7165V7.28525C17.9824 7.19573 18 7.09885 18 7.00087Z" fill="black" stroke="black"/>
</svg>